<svg 
 xmlns="http://www.w3.org/2000/svg"
 xmlns:xlink="http://www.w3.org/1999/xlink"
 width="70px" height="62px">
<path fill-rule="evenodd"  fill="rgb(255, 255, 255)"
 d="M69.051,27.839 L60.701,54.292 C59.573,57.864 55.261,59.664 51.068,58.312 C46.875,56.960 44.390,52.967 45.518,49.395 L53.868,22.942 C54.995,19.370 59.308,17.570 63.501,18.923 C67.694,20.275 70.178,24.267 69.051,27.839 ZM40.761,55.118 C39.026,60.614 32.390,63.384 25.938,61.303 C19.487,59.223 15.664,53.080 17.399,47.583 L30.247,6.881 C31.982,1.384 38.618,-1.386 45.069,0.695 C51.521,2.776 55.344,8.918 53.609,14.415 L40.761,55.118 ZM16.447,41.378 C15.320,44.951 11.006,46.751 6.814,45.398 C2.621,44.047 0.137,40.054 1.264,36.482 L9.614,10.029 C10.741,6.457 15.054,4.657 19.247,6.010 C23.440,7.361 25.924,11.354 24.797,14.926 L16.447,41.378 Z"/>
</svg>